# xmcd CD database file
#
# Track frame offsets:
#	150
#	20243
#	59093
#	89097
#	110755
#	130767
#	148657
#	166435
#	194405
#	211827
#	232714
#	243116
#	276166
#
# Disc length: 3800 seconds
#
# Revision: 0
# Processed by: cddbd v1.5.1PL2 Copyright (c) Steve Scherf et al.
# Submitted via: CDex 1.50beta10
#
DISCID=c20ed60d
DTITLE=Fernando Jones - Stranded
DYEAR=2004
DGENRE=Blues
TTITLE0=Stranded
TTITLE1=Easy To Hold
TTITLE2=Sometimes (I can't help myself)
TTITLE3=I Want A Pretty Woman (ft. Barkin Bill)
TTITLE4=Down To The Bottom
TTITLE5=I Want To Spend X-Mas With You
TTITLE6=How Come
TTITLE7=Tracey
TTITLE8=On Top (ft. Foree Superstar)
TTITLE9=You Must Be Brothers
TTITLE10=My Best Friend
TTITLE11=Minneapolis Blues
TTITLE12=How Many Times - VIDEO
EXTD=YEAR: 2004
EXTT0=
EXTT1=
EXTT2=
EXTT3=
EXTT4=
EXTT5=
EXTT6=
EXTT7=
EXTT8=
EXTT9=
EXTT10=
EXTT11=
EXTT12=
PLAYORDER=
